<?xml version="1.0" encoding="UTF-8" standalone="no"?>
<svg width="300px" height="300px" viewBox="0 0 300 300" version="1.1" xmlns="http://www.w3.org/2000/svg" xmlns:xlink="http://www.w3.org/1999/xlink" xmlns:sketch="http://www.bohemiancoding.com/sketch/ns">
    <!-- Generator: Sketch 3.1 (8751) - http://www.bohemiancoding.com/sketch -->
    <title>Artboard 1</title>
    <desc>Created with Sketch.</desc>
    <defs></defs>
    <g id="Page-1" stroke="none" stroke-width="1" fill="none" fill-rule="evenodd" sketch:type="MSPage">
        <g id="Artboard-1" sketch:type="MSArtboardGroup">
            <rect id="back" fill="#338656" sketch:type="MSShapeGroup" x="37.0528901" y="0" width="225.89422" height="24.4897959"></rect>
            <path d="M37.0528901,0 L37.0528901,24.4897959 L48.9420595,24.4897959 L48.9420595,11.0204082 L37.0528901,0 Z" id="dobra-back" fill="#2D6A47" sketch:type="MSShapeGroup"></path>
            <path d="M48.9420595,11.0204082 L48.9420595,24.4897959 L31.1083053,24.4897959 L48.9420595,11.0204082 Z" id="dobra-front" fill="#8ED1A8" sketch:type="MSShapeGroup"></path>
            <path d="M262.94711,0 L262.94711,24.4897959 L251.05794,24.4897959 L251.05794,11.0204082 L262.94711,0 Z" id="dobra-back-2" fill="#2D6A47" sketch:type="MSShapeGroup"></path>
            <path d="M251.05794,11.0204082 L251.05794,24.4897959 L268.891695,24.4897959 L251.05794,11.0204082 Z" id="dobra-front-2" fill="#8ED1A8" sketch:type="MSShapeGroup"></path>
            <path d="M31.1083053,226.530612 L31.1083053,293.870038 C31.1083053,297.255523 33.7787243,300 37.0454542,300 L262.954546,300 C266.233543,300 268.891695,297.269241 268.891695,293.870038 L268.891695,226.530612 L268.891695,24.4897959 L31.1083053,24.4897959 L31.1083053,226.530612 L31.1083053,226.530612 Z" id="base" fill="#51BF81" sketch:type="MSShapeGroup"></path>
            <path d="M225.065627,199.378212 C226.390864,195.975107 228.485798,192.220026 231.330875,188.342498 C238.64633,178.372336 248.826108,170.44814 257.002525,167.755102 C248.386232,168.249873 235.407302,177.294803 226.589742,189.31217 C224.15454,192.631082 222.268913,195.860287 220.94512,198.855851 C222.331814,198.991297 223.709835,199.162513 225.065627,199.378212 L225.065627,199.378212 Z M192.637151,199.378213 C191.311913,195.975107 189.21698,192.220026 186.371902,188.342498 C179.056447,178.372336 168.87667,170.44814 160.700253,167.755102 C169.316546,168.249873 182.295475,177.294803 191.113036,189.31217 C193.548238,192.631082 195.433865,195.860287 196.757658,198.855852 C195.370963,198.991298 193.992943,199.162514 192.637151,199.378213 L192.637151,199.378213 Z M237.964812,206.214121 C230.275259,201.398781 218.698685,200.82027 208.851394,200.816327 C199.004099,200.820269 187.427522,201.39878 179.737968,206.214121 C185.649677,207.923396 191.392345,213.094228 194.746301,220.504078 C199.9948,232.099514 197.406295,244.786927 188.964714,248.842207 C183.04208,251.687401 175.811833,249.527546 170.211588,243.980604 L170.211591,243.980607 C170.212022,244.084225 170.212247,244.185941 170.212247,244.285704 C170.212247,251.805306 178.240251,266.953939 182.065621,271.433701 C185.870292,275.889224 196.208513,287.627165 208.748953,287.754065 L208.748953,287.755102 C208.783115,287.755102 208.817261,287.755015 208.85139,287.754843 C208.88552,287.755015 208.919666,287.755102 208.953828,287.754065 C221.494268,287.627165 231.832488,275.889224 235.637159,271.433701 C239.46253,266.953939 247.490533,251.805306 247.490533,244.285704 C247.490533,244.185941 247.490759,244.084225 247.49119,243.980607 C241.890948,249.527546 234.660701,251.687401 228.738067,248.842207 C220.296485,244.786927 217.70798,232.099514 222.956479,220.504078 C226.310436,213.094228 232.053103,207.923396 237.964812,206.214121 L237.964812,206.214121 Z M187.91589,247.066193 C195.721617,243.383539 198.115146,231.861931 193.261985,221.331961 C188.408824,210.801992 178.146768,205.251146 170.34104,208.9338 C162.535313,212.616454 160.141785,224.138062 164.994945,234.668031 C169.848106,245.198001 180.110162,250.748847 187.91589,247.066193 Z M229.786888,247.066193 C221.98116,243.383539 219.587632,231.861931 224.440793,221.331961 C229.293953,210.801992 239.55601,205.251146 247.361737,208.9338 C255.167465,212.616454 257.560993,224.138062 252.707832,234.668031 C247.854672,245.198001 237.592615,250.748847 229.786888,247.066193 Z" id="Feeler-right" fill="#FFFFFF" sketch:type="MSShapeGroup"></path>
            <ellipse id="Oval-1" fill="#2D6A47" sketch:type="MSShapeGroup" cx="98.2821128" cy="81.4285714" rx="7.72796015" ry="7.95918367"></ellipse>
            <ellipse id="Oval-2" fill="#2D6A47" sketch:type="MSShapeGroup" cx="201.717887" cy="81.4285714" rx="7.72796015" ry="7.95918367"></ellipse>
            <path d="M101.006714,101.020408 L101.006714,113.76433 C101.006714,124.573881 109.168354,133.346939 119.236247,133.346939 L180.763753,133.346939 C190.828508,133.346939 198.993286,124.579506 198.993286,113.76433 L198.993286,101.020408 L198.993286,101.020408 L198.993286,82.1650236 C198.986724,82.0837006 198.983378,82.0014374 198.983378,81.9183692 C198.983378,80.2953283 200.260889,78.9795936 201.836779,78.9795936 C203.412668,78.9795936 204.690179,80.2953273 204.69018,81.9183675 L204.69018,101.020408 L204.69018,114.983454 C204.69018,128.506662 194.498163,139.469388 181.893614,139.469388 L118.106386,139.469388 C105.51619,139.469388 95.3098205,128.50746 95.3098205,114.983454 L95.3098205,101.020408 L95.3098205,81.9183675 L95.3098205,81.9183675 C95.3098205,80.2953265 96.5873315,78.9795918 98.1632212,78.9795918 C99.739111,78.9795918 101.016622,80.2953265 101.016622,81.9183675 C101.016622,82.0014356 101.013276,82.0836988 101.006714,82.1650219 L101.006714,82.1650219 L101.006714,101.020408 L101.006714,101.020408 Z" id="Rectangle-8" fill="#BDF2D2" sketch:type="MSShapeGroup"></path>
        </g>
    </g>
</svg>