<svg id="github" viewBox="0 0 20 20">
	<path fill="currentColor" fill-rule="evenodd" clip-rule="evenodd" d="M7.06048489,19.0267763 C7.06048489,18.7831802 7.05189043,18.1386263 7.0469793,17.2825781 C4.2654329,17.9019541 3.67855177,15.9078654 3.67855177,15.9078654 C3.22365752,14.7232457 2.56802045,14.4078927 2.56802045,14.4078927 C1.66007362,13.7715216 2.6367764,13.78474 2.6367764,13.78474 C3.64049045,13.8571264 4.1684379,14.8415818 4.1684379,14.8415818 C5.06042352,16.4082759 6.50859568,15.9563328 7.07890167,15.6938533 C7.16975775,15.0310454 7.42820647,14.5791023 7.71366643,14.3229174 C5.49321768,14.0642145 3.15858493,13.1842474 3.15858493,9.25523796 C3.15858493,8.1360808 3.54840659,7.2208646 4.18808246,6.50392425 C4.08556243,6.24459201 3.74178269,5.20222742 4.28630524,3.79037736 C4.28630524,3.79037736 5.12611003,3.51467949 7.03592925,4.84155417 C7.83337541,4.61432375 8.68914141,4.49976436 9.53999623,4.49598768 C10.3890094,4.49976436 11.2441615,4.61432375 12.0434494,4.84155417 C13.9520408,3.51467949 14.7906178,3.79037736 14.7906178,3.79037736 C15.3363681,5.201598 14.9932023,6.24396254 14.8900684,6.50392425 C15.530972,7.2208646 15.9177242,8.1360808 15.9177242,9.25523796 C15.9177242,13.1943185 13.5794081,14.0610673 11.3515927,14.3147345 C11.7113336,14.6313465 12.0305577,15.257017 12.0305577,16.2137767 C12.0305577,17.5847127 12.0176659,18.6906515 12.0176659,19.0267763 C12.0176659,19.3012153 12.1981503,19.6197155 12.7058393,19.5196334 C16.6758813,18.1612864 19.5384615,14.3203995 19.5384615,9.79215638 C19.5384615,4.12901996 15.0607305,-0.461538462 9.53815457,-0.461538462 C4.01619259,-0.461538462 -0.461538462,4.12901996 -0.461538462,9.79215638 C-0.46092457,14.3216585 2.40411118,18.165063 6.37783659,19.5208923 C6.87754499,19.6146799 7.06048489,19.298068 7.06048489,19.0267763 L7.06048489,19.0267763 Z"/>
</svg>
