<svg viewBox="0 0 512 512">
<path fill="currentColor" fill-rule="evenodd" clip-rule="evenodd" d="M120.548 48.424c-2.785-7.996-14.104-7.996-16.979 0L52.813 205.457h118.583c-.09 0-50.848-157.033-50.848-157.033zM26.849 284.512c-2.336 7.188.271 15.183 6.379 19.765l222.703 165.296L52.722 205.457l-25.873 79.055zm144.457-79.055l84.715 264.115 84.715-264.115h-169.43zm313.883 79.055l-25.872-79.055-203.296 264.115 222.703-165.296c6.196-4.582 8.712-12.577 6.465-19.764zM408.471 48.424c-2.785-7.996-14.104-7.996-16.979 0l-50.848 157.033h118.584L408.471 48.424z"/>
</svg>
