<svg id="gplus" viewBox="0 0 20 20">
	<path fill="currentColor" fill-rule="evenodd" clip-rule="evenodd" d="M10.265625,11.509375 C9.705,11.113125 8.635,10.149375 8.635,9.5825 C8.635,8.91875 8.824375,8.59125 9.82375,7.810625 C10.8475,7.01 11.573125,5.698125 11.573125,4.388125 C11.573125,2.830625 10.878125,1.875 9.575625,0.625 L11.540625,0.625 L12.926875,0 L6.73125,0 C3.953125,0 1.34,2.10125 1.34,4.538125 C1.34,7.029375 3.233125,9.03875 6.059375,9.03875 C6.255625,9.03875 6.44625,9.03375 6.63375,9.02125 C6.45,9.37125 6.319375,9.76625 6.319375,10.176875 C6.319375,10.869375 6.691875,11.430625 7.161875,11.889375 C6.8075,11.889375 6.463125,11.899375 6.08875,11.899375 C2.646875,11.89875 0,14.089375 0,16.361875 C0,18.59875 2.903125,20 6.3425,20 C10.265,20 12.430625,17.77375 12.430625,15.53625 C12.43125,13.741875 11.90125,12.668125 10.265625,11.509375 L10.265625,11.509375 Z M6.955625,8.405 C5.35875,8.3575 3.8425,6.619375 3.566875,4.524375 C3.291875,2.4275 4.361875,0.823125 5.956875,0.870625 C7.553125,0.919375 9.07,2.600625 9.34625,4.696875 C9.621875,6.79375 8.550625,8.4525 6.955625,8.405 L6.955625,8.405 Z M6.33,19.009375 C3.951875,19.009375 2.234375,17.505 2.234375,15.69625 C2.234375,13.925 4.364375,12.449375 6.743125,12.475 C7.298125,12.48125 7.815,12.57 8.28375,12.721875 C9.575,13.620625 10.50125,14.128125 10.76375,15.15 C10.81125,15.3575 10.839375,15.571875 10.839375,15.789375 C10.839375,17.596875 9.67375,19.009375 6.33,19.009375 L6.33,19.009375 Z M16.875,8.75 L16.875,5.625 L15.625,5.625 L15.625,8.75 L12.5,8.75 L12.5,10 L15.625,10 L15.625,13.125 L16.875,13.125 L16.875,10 L20,10 L20,8.75 L16.875,8.75 Z"/>
</svg>
