<svg id="instagram" viewBox="0 0 20 20">
	<path fill="currentColor" fill-rule="evenodd" clip-rule="evenodd" d="M17.5,0 L2.5,0 C1.088125,0 0,1.088125 0,2.5 L0,17.5 C0,18.91125 1.088125,20 2.5,20 L17.5,20 C18.91125,20 20,18.91125 20,17.5 L20,2.5 C20,1.088125 18.91125,0 17.5,0 L17.5,0 L17.5,0 Z M10.014375,6.07125 C12.2325,6.07125 14.03,7.813125 14.03,9.9625 C14.03,12.110625 12.2325,13.85375 10.014375,13.85375 C7.798125,13.85375 6,12.110625 6,9.9625 C6.000625,7.813125 7.79875,6.07125 10.014375,6.07125 L10.014375,6.07125 L10.014375,6.07125 Z M17.5,16.875 C17.5,17.313125 17.3125,17.5 16.875,17.5 L3.125,17.5 C2.688125,17.5 2.5,17.313125 2.5,16.875 L2.5,8.125 L4.058125,8.46375 C3.89125,9.0075 3.8,9.5825 3.8,10.179375 C3.8,13.503125 6.58375,16.200625 10.014375,16.200625 C13.446875,16.200625 16.229375,13.50375 16.229375,10.179375 C16.229375,9.5825 16.13875,9.0075 15.971875,8.46375 L17.5,8.125 L17.5,16.875 L17.5,16.875 Z M17.5,5.625 C17.5,5.970625 17.220625,6.25 16.875,6.25 L14.375,6.25 C14.029375,6.25 13.75,5.970625 13.75,5.625 L13.75,3.125 C13.75,2.779375 14.029375,2.5 14.375,2.5 L16.875,2.5 C17.220625,2.5 17.5,2.779375 17.5,3.125 L17.5,5.625 L17.5,5.625 Z"/>
</svg>
