<svg id="linkedin" viewBox="0 0 20 20">
	<path fill="currentColor" fill-rule="evenodd" clip-rule="evenodd" d="M4.24828226,20.1538458 L4.24828226,6.92705033 L0.178444096,6.92705033 L0.178444096,20.1538458 L4.24828226,20.1538458 L4.24828226,20.1538458 Z M4.24828226,2.23873288 C4.224041,1.05507138 3.43869072,0.153846154 2.1628701,0.153846154 C0.886717409,0.153846154 0.0528846154,1.05507138 0.0528846154,2.23873288 C0.0528846154,3.3966859 0.862476151,4.32397667 2.11405552,4.32397667 L2.13829677,4.32397667 C3.43869072,4.32397667 4.24828226,3.3966859 4.24828226,2.23873288 L4.24828226,2.23873288 L4.24828226,2.23873288 Z M10.8879951,20.1538462 L10.8879951,12.6178574 C10.8879951,12.214543 10.9170156,11.8112286 11.035085,11.5237174 C11.3578875,10.717488 12.0925417,9.88290677 13.3261086,9.88290677 C14.9421091,9.88290677 15.9555791,10.8041406 15.9555791,12.6178572 L15.9555791,20.1538461 L20.0528846,20.1538462 L20.0528846,12.4162002 C20.0528846,8.27124659 17.850115,6.3425254 14.9118961,6.3425254 C12.502803,6.3425254 11.4453464,7.69542548 10.8581797,8.61626009 L10.8875976,6.84723142 L6.79737899,6.84723142 C6.85621493,8.11347877 6.79737899,20.1538461 6.79737899,20.1538461 L10.8879951,20.1538462 L10.8879951,20.1538462 Z"/>
</svg>
