<svg id="twitter" viewBox="0 0 20 20">
	<path fill="currentColor" fill-rule="evenodd" clip-rule="evenodd" d="M16.6879538,1.63769743 C15.9395538,0.744277129 14.8731538,0.175047822 13.6929538,0.154421322 C11.4269538,0.114818163 9.5896538,2.12534636 9.5896538,4.64487158 C9.5896538,5.00245292 9.62595383,5.35114685 9.69595381,5.68588371 C6.28575383,5.45362533 3.26225384,3.58904704 1.23855384,0.778415324 C0.885353846,1.45190626 0.682953843,2.23906992 0.682953843,3.0822939 C0.682953843,4.67858864 1.40735385,6.09528886 2.50835384,6.93176747 C1.83575385,6.90058859 1.20305384,6.68679573 0.649853844,6.33606498 C0.649453846,6.35523539 0.649453846,6.37441037 0.649453846,6.39392175 C0.649453846,8.62315347 2.06385384,10.4933061 3.94095384,10.9289561 C3.59665384,11.0313959 3.23415384,11.0850068 2.85995384,11.0824014 C2.59555384,11.0805604 2.33845384,11.0497738 2.08795384,10.9944954 C2.61005384,12.8226917 4.12535384,14.1567443 5.92095383,14.2008544 C4.51665384,15.4248488 2.74745384,16.1538218 0.824953846,16.1496577 C0.493753843,16.1489403 0.167153847,16.126469 -0.153846154,16.0832359 C1.66205384,17.3915002 3.81885384,18.1532074 6.13605381,18.1538457 C13.6833538,18.1559248 17.8106538,11.2595282 17.8106538,5.2777458 C17.8106538,5.08148977 17.8065538,4.88628359 17.7987538,4.69201993 C18.6004538,4.06477935 19.2960538,3.2783591 19.8461538,2.38033851 C19.1103538,2.72860665 18.3194538,2.95991077 17.4895538,3.05693578 C18.3366538,2.50952352 18.9873538,1.6334086 19.2936538,0.582789117 C18.5007538,1.08766614 17.6226538,1.44972951 16.6879538,1.63769743 L16.6879538,1.63769743 Z"/>
</svg>
