<?xml version="1.0" standalone="no"?>
<!DOCTYPE svg PUBLIC "-//W3C//DTD SVG 20010904//EN"
 "http://www.w3.org/TR/2001/REC-SVG-20010904/DTD/svg10.dtd">
<svg version="1.0" xmlns="http://www.w3.org/2000/svg"
 width="700.000000pt" height="700.000000pt" viewBox="0 0 700.000000 700.000000"
 preserveAspectRatio="xMidYMid meet">
<metadata>
Created by potrace 1.11, written by Peter Selinger 2001-2013
</metadata>
<g transform="translate(0.000000,700.000000) scale(0.100000,-0.100000)"
fill="#000000" stroke="none">
<path d="M860 6765 c0 -129 2 -235 5 -235 3 0 60 42 128 93 67 52 128 97 135
101 9 6 12 -26 12 -143 l0 -151 -205 0 -205 0 0 -3164 0 -3163 23 -34 c12 -19
38 -42 57 -51 33 -17 182 -18 2690 -18 2508 0 2657 1 2690 18 19 9 45 32 57
51 l23 34 0 3163 0 3164 -205 0 -205 0 0 151 c0 117 3 149 13 143 6 -4 67 -49
134 -101 68 -51 125 -93 128 -93 3 0 5 106 5 235 l0 235 -2640 0 -2640 0 0
-235z m1473 -1629 c18 -18 27 -208 27 -576 0 -212 3 -289 15 -333 42 -162 158
-282 310 -321 89 -24 1541 -24 1630 0 156 40 283 177 314 338 5 28 12 233 14
456 3 223 8 413 12 423 4 9 18 20 31 23 33 9 70 -3 79 -23 4 -10 9 -198 12
-418 5 -336 3 -414 -10 -490 -38 -217 -178 -380 -387 -451 -52 -18 -100 -19
-875 -19 -768 0 -824 1 -880 18 -98 31 -156 66 -231 141 -87 87 -138 185 -159
301 -16 87 -20 515 -8 773 7 156 13 172 63 172 16 0 35 -6 43 -14z m1623
-2115 c223 -110 460 -339 593 -577 47 -85 45 -94 -22 -94 -36 0 -38 2 -63 57
-104 235 -396 531 -637 644 -37 17 -67 32 -67 34 0 13 114 -25 196 -64z m1935
13 c-227 -113 -468 -356 -589 -591 -46 -91 -48 -93 -82 -93 -60 0 -65 10 -34
71 95 188 292 404 489 536 104 70 220 121 279 122 21 1 5 -10 -63 -45z m-846
-724 c231 -14 398 -51 483 -106 22 -15 22 -16 -49 -51 -278 -139 -419 -549
-281 -819 30 -60 109 -128 171 -149 108 -36 238 -7 348 76 29 21 54 39 57 39
9 0 -8 -88 -31 -165 -26 -84 -128 -298 -186 -388 -126 -196 -365 -388 -552
-443 -176 -51 -378 9 -569 172 -94 80 -189 184 -241 264 -102 156 -205 399
-221 520 l-7 54 44 -37 c24 -21 73 -53 109 -70 58 -29 74 -32 155 -32 75 0 98
4 135 23 126 66 190 192 190 373 0 145 -51 303 -132 409 -56 73 -137 144 -200
173 -37 18 -68 35 -68 38 0 12 118 59 197 79 80 21 213 38 338 43 39 2 86 4
105 5 19 1 112 -3 205 -8z m-805 -192 c210 -96 357 -371 323 -604 -29 -201
-151 -314 -324 -302 -196 14 -374 198 -435 448 -50 203 38 418 193 476 58 22
176 13 243 -18z m1501 20 c86 -29 165 -117 195 -216 20 -66 22 -200 4 -277 -6
-27 -29 -88 -52 -135 -51 -107 -161 -221 -253 -265 -79 -37 -185 -46 -252 -20
-211 81 -268 390 -121 661 59 108 205 231 302 255 49 11 140 10 177 -3z"/>
</g>
</svg>
