<?xml version="1.0" standalone="no"?>
<!DOCTYPE svg PUBLIC "-//W3C//DTD SVG 20010904//EN"
 "http://www.w3.org/TR/2001/REC-SVG-20010904/DTD/svg10.dtd">
<svg version="1.0" xmlns="http://www.w3.org/2000/svg"
 width="700.000000pt" height="700.000000pt" viewBox="0 0 700.000000 700.000000"
 preserveAspectRatio="xMidYMid meet">
<metadata>
Created by potrace 1.11, written by Peter Selinger 2001-2013
</metadata>
<g transform="translate(0.000000,700.000000) scale(0.100000,-0.100000)"
fill="#000000" stroke="none">
<path d="M860 6766 l0 -233 -67 -55 -68 -54 0 -3159 c0 -3142 0 -3160 20
-3194 11 -18 36 -42 55 -52 34 -18 119 -19 2700 -19 2517 0 2667 1 2700 18 19
9 43 33 55 52 20 35 20 36 20 3195 l0 3159 -67 54 -68 55 0 233 0 234 -2640 0
-2640 0 0 -234z m1473 -1633 c13 -16 16 -74 19 -448 4 -400 6 -434 24 -486 63
-174 196 -288 360 -310 90 -11 1438 -11 1528 0 164 22 297 136 360 310 18 52
20 86 24 486 3 374 6 432 19 448 20 22 61 22 85 0 17 -15 18 -42 18 -453 0
-399 -2 -443 -19 -512 -47 -184 -165 -320 -339 -390 l-57 -23 -818 -3 c-530
-2 -838 1 -874 8 -116 21 -239 98 -311 194 -54 72 -80 125 -103 213 -17 70
-19 114 -19 511 0 391 2 437 17 454 21 23 65 23 86 1z m3558 -2094 c-235 -117
-479 -366 -605 -617 l-37 -74 -42 7 c-23 4 -43 9 -45 10 -6 5 77 147 126 215
25 36 93 113 150 172 149 153 310 263 452 309 88 29 88 22 1 -22z m-1990 6
c236 -93 533 -375 662 -631 l26 -52 -45 -7 c-25 -3 -47 -5 -49 -3 -1 2 -21 39
-43 83 -113 225 -338 459 -567 590 -88 50 -82 58 16 20z m1250 -746 c57 -5
136 -17 174 -26 73 -16 215 -70 214 -81 0 -4 -28 -20 -62 -36 -43 -20 -85 -52
-137 -105 -203 -206 -262 -536 -131 -738 66 -103 143 -145 262 -146 67 -1 85
4 150 35 41 19 92 50 112 68 l37 32 0 -30 c0 -93 -124 -387 -231 -547 -56 -83
-228 -253 -317 -314 -260 -176 -503 -159 -768 53 -83 66 -185 175 -246 261
-89 125 -217 421 -231 533 -6 47 -7 48 65 -9 68 -53 148 -81 233 -82 310 -4
435 405 232 758 -53 93 -158 195 -236 232 -33 15 -61 31 -61 34 0 9 107 55
170 72 47 13 124 26 245 40 71 9 431 6 526 -4z m-895 -194 c178 -88 305 -308
306 -530 1 -120 -28 -200 -101 -278 -59 -63 -103 -82 -197 -82 -73 0 -88 4
-156 38 -138 68 -260 231 -298 397 -27 117 -10 281 38 351 75 112 150 153 267
145 53 -4 87 -14 141 -41z m1481 30 c97 -29 174 -122 203 -244 18 -76 8 -220
-20 -300 -54 -153 -162 -282 -285 -341 -61 -30 -80 -34 -150 -35 -71 0 -86 3
-135 31 -249 141 -213 601 64 810 115 87 214 111 323 79z"/>
</g>
</svg>
